<svg width="24" height="24" viewBox="0 0 24 24" fill="none" xmlns="http://www.w3.org/2000/svg">
<path d="M21.75 12C21.7451 14.3821 20.8709 16.6805 19.2915 18.4636C17.712 20.2468 15.5359 21.392 13.1718 21.6844C13.1191 21.6896 13.0658 21.6838 13.0154 21.6674C12.965 21.651 12.9185 21.6244 12.8789 21.5891C12.8393 21.5539 12.8074 21.5109 12.7852 21.4627C12.763 21.4146 12.751 21.3624 12.75 21.3094V14.25H15C15.1025 14.2502 15.204 14.2294 15.2982 14.1888C15.3924 14.1482 15.4773 14.0887 15.5476 14.014C15.6179 13.9393 15.6721 13.851 15.7069 13.7546C15.7417 13.6581 15.7564 13.5555 15.75 13.4531C15.7334 13.2592 15.6438 13.0788 15.4994 12.9483C15.355 12.8178 15.1665 12.7469 14.9718 12.75H12.75V10.5C12.75 10.1022 12.908 9.72065 13.1893 9.43935C13.4706 9.15804 13.8521 9.00001 14.25 9.00001H15.75C15.8525 9.00021 15.954 8.97937 16.0482 8.93878C16.1424 8.89819 16.2273 8.83872 16.2976 8.76403C16.3679 8.68935 16.4221 8.60104 16.4569 8.50456C16.4917 8.40808 16.5064 8.30549 16.5 8.20313C16.4834 8.0092 16.3938 7.82878 16.2494 7.69828C16.105 7.56778 15.9165 7.49692 15.7218 7.50001H14.25C13.4543 7.50001 12.6913 7.81608 12.1287 8.37869C11.566 8.9413 11.25 9.70436 11.25 10.5V12.75H8.99997C8.89741 12.7498 8.79589 12.7706 8.7017 12.8112C8.60751 12.8518 8.52265 12.9113 8.45235 12.986C8.38206 13.0607 8.32783 13.149 8.29302 13.2455C8.25821 13.3419 8.24356 13.4445 8.24997 13.5469C8.26656 13.7408 8.3561 13.9212 8.50052 14.0517C8.64494 14.1822 8.83348 14.2531 9.0281 14.25H11.25V21.3094C11.2502 21.3619 11.2394 21.414 11.2183 21.4621C11.1972 21.5102 11.1661 21.5534 11.1272 21.5887C11.0883 21.6241 11.0424 21.6509 10.9925 21.6674C10.9426 21.6838 10.8898 21.6896 10.8375 21.6844C5.88747 21.0844 2.06247 16.7813 2.25935 11.6344C2.36986 9.09262 3.46952 6.69472 5.3236 4.95254C7.17767 3.21036 9.63929 2.26191 12.183 2.30962C14.7267 2.35734 17.151 3.39745 18.9385 5.20795C20.7259 7.01844 21.7349 9.45588 21.75 12Z" fill="white"/>
</svg>
