<svg width="107" height="96" viewBox="0 0 107 96" fill="none" xmlns="http://www.w3.org/2000/svg">
<path d="M106.17 33.8425C104.211 33.5416 101.085 33.1899 97.2378 33.1878C86.5932 33.1878 71.2875 35.8447 58.8102 48.4999C41.7332 65.8227 43.5278 88.0906 44.6719 95.3261C46.6466 95.6333 49.8098 95.9999 53.6914 95.9999C64.0901 95.9999 79.0908 93.432 91.5023 81.1963C109.101 63.848 107.317 41.1776 106.168 33.8446L106.17 33.8425Z" fill="#8FB996"/>
<path d="M51.2229 52.0722C50.2398 50.8687 49.1826 49.6801 48.0342 48.5148C35.557 35.8596 20.2512 33.2027 9.60666 33.2027C5.75904 33.2027 2.6339 33.5565 0.674068 33.8574C-0.472168 41.1925 -2.25614 63.8629 15.34 81.209C23.4886 89.2412 32.7539 93.1079 41.0996 94.8177C40.0487 87.0822 39.1842 68.4924 51.2229 52.0743V52.0722Z" fill="#2D5953"/>
<path d="M29.1162 32.7875C32.4066 22.501 42.0426 15.0515 53.4223 15.0515C64.802 15.0515 74.4296 22.4967 77.7242 32.7769C82.9766 31.0331 88.0594 30.2068 92.5596 29.8869C87.8687 12.6658 72.1286 0 53.4223 0C34.716 0 18.9674 12.6722 14.2808 29.8996C18.781 30.2195 23.8659 31.0459 29.1162 32.7896V32.7875Z" fill="#F4743B"/>
</svg>
