<svg width="208" height="37" viewBox="0 0 208 37" fill="none" xmlns="http://www.w3.org/2000/svg">
<path d="M76.7186 15.2956C77.841 16.4465 78.4022 18.0449 78.4022 20.0907V29.0236H73.746V20.7201C73.746 19.7327 73.487 18.9706 72.9659 18.4306C72.4448 17.8906 71.7294 17.6222 70.8167 17.6222C69.904 17.6222 69.1886 17.8906 68.6675 18.4306C68.1463 18.9706 67.8873 19.7327 67.8873 20.7201V29.0236H63.2312V20.7201C63.2312 19.7327 62.9722 18.9706 62.4511 18.4306C61.9299 17.8906 61.2146 17.6222 60.3018 17.6222C59.3891 17.6222 58.6737 17.8906 58.1526 18.4306C57.6315 18.9706 57.3725 19.7327 57.3725 20.7201V29.0236H52.6886V13.7312H57.3725V15.6504C57.8473 15.0117 58.4671 14.5057 59.2349 14.1292C60.0027 13.7558 60.8692 13.5676 61.8374 13.5676C62.9876 13.5676 64.0144 13.8145 64.9179 14.3082C65.8214 14.8019 66.5275 15.5054 67.0394 16.4188C67.5697 15.5795 68.2913 14.8944 69.204 14.3637C70.1167 13.833 71.1127 13.5676 72.1888 13.5676C74.0883 13.5676 75.5992 14.1446 76.7216 15.2956H76.7186Z" fill="white"/>
<path d="M96.0157 22.5036H85.4176C85.4916 23.454 85.7969 24.1791 86.3365 24.6821C86.8761 25.185 87.536 25.4349 88.3223 25.4349C89.491 25.4349 90.3019 24.9412 90.7583 23.9538H95.7444C95.4884 24.9598 95.029 25.8638 94.3598 26.6661C93.6938 27.4715 92.8582 28.1009 91.8529 28.5576C90.8477 29.0143 89.7253 29.2426 88.4857 29.2426C86.9871 29.2426 85.655 28.9248 84.4864 28.283C83.3177 27.6443 82.405 26.7309 81.7482 25.5429C81.0914 24.355 80.7615 22.9664 80.7615 21.3773C80.7615 19.7882 81.0852 18.3997 81.7328 17.2117C82.3803 16.0237 83.29 15.1104 84.4586 14.4717C85.6273 13.8329 86.9686 13.512 88.4857 13.512C90.0028 13.512 91.2794 13.8237 92.4296 14.4439C93.5797 15.0641 94.4801 15.9528 95.1277 17.1037C95.7752 18.2547 96.099 19.5969 96.099 21.1336C96.099 21.5717 96.0712 22.0284 96.0157 22.5036ZM91.3041 19.8993C91.3041 19.097 91.0296 18.4552 90.4839 17.98C89.935 17.5048 89.2504 17.2673 88.4302 17.2673C87.61 17.2673 86.984 17.4956 86.4444 17.9523C85.9048 18.4089 85.5718 19.0569 85.4454 19.8993H91.3071H91.3041Z" fill="white"/>
<path d="M105.297 14.2958C106.117 13.8113 107.03 13.5706 108.035 13.5706V18.5324H106.749C105.58 18.5324 104.705 18.7823 104.119 19.2853C103.533 19.7882 103.243 20.6676 103.243 21.9297V29.0266H98.5592V13.7342H103.243V16.2829C103.792 15.4436 104.477 14.7802 105.297 14.2958Z" fill="white"/>
<path d="M110.323 17.2147C110.97 16.0268 111.874 15.1134 113.033 14.4747C114.193 13.836 115.522 13.515 117.017 13.515C118.935 13.515 120.536 14.018 121.824 15.0239C123.11 16.0298 123.955 17.4462 124.356 19.2729H119.373C118.954 18.1034 118.14 17.5202 116.934 17.5202C116.077 17.5202 115.392 17.8535 114.88 18.52C114.368 19.1865 114.113 20.1399 114.113 21.3834C114.113 22.6269 114.368 23.5804 114.88 24.2469C115.392 24.9134 116.077 25.2467 116.934 25.2467C118.14 25.2467 118.951 24.6635 119.373 23.494H124.356C123.955 25.2837 123.104 26.6907 121.809 27.7152C120.511 28.7396 118.914 29.2487 117.017 29.2487C115.519 29.2487 114.193 28.9309 113.033 28.2891C111.874 27.6504 110.97 26.737 110.323 25.549C109.675 24.3611 109.352 22.9725 109.352 21.3834C109.352 19.7943 109.675 18.4058 110.323 17.2178V17.2147Z" fill="white"/>
<path d="M126.811 17.2147C127.403 16.0268 128.211 15.1134 129.234 14.4747C130.258 13.836 131.399 13.515 132.657 13.515C133.733 13.515 134.68 13.7341 135.491 14.1723C136.302 14.6104 136.928 15.1875 137.366 15.9002V13.7341H142.05V29.0266H137.366V26.8604C136.909 27.5732 136.274 28.1472 135.463 28.5884C134.649 29.0266 133.705 29.2457 132.629 29.2457C131.387 29.2457 130.255 28.9217 129.234 28.2737C128.211 27.6257 127.403 26.7031 126.811 25.5059C126.216 24.3086 125.92 22.9263 125.92 21.3526C125.92 19.7789 126.216 18.4027 126.811 17.2147ZM136.397 18.6125C135.75 17.9368 134.96 17.5974 134.029 17.5974C133.098 17.5974 132.309 17.9306 131.661 18.5971C131.014 19.2636 130.69 20.1831 130.69 21.3526C130.69 22.522 131.014 23.4508 131.661 24.1327C132.309 24.8178 133.098 25.1603 134.029 25.1603C134.96 25.1603 135.75 24.8208 136.397 24.1451C137.045 23.4693 137.369 22.5467 137.369 21.3773C137.369 20.2078 137.045 19.2852 136.397 18.6094V18.6125Z" fill="white"/>
<path d="M169.481 15.2956C170.603 16.4465 171.164 18.0449 171.164 20.0907V29.0236H166.508V20.7201C166.508 19.7327 166.249 18.9706 165.728 18.4306C165.207 17.8906 164.491 17.6222 163.579 17.6222C162.666 17.6222 161.951 17.8906 161.429 18.4306C160.908 18.9706 160.649 19.7327 160.649 20.7201V29.0236H155.993V20.7201C155.993 19.7327 155.734 18.9706 155.213 18.4306C154.692 17.8906 153.977 17.6222 153.064 17.6222C152.151 17.6222 151.436 17.8906 150.915 18.4306C150.393 18.9706 150.134 19.7327 150.134 20.7201V29.0236H145.451V13.7312H150.134V15.6504C150.609 15.0117 151.229 14.5057 151.997 14.1292C152.765 13.7558 153.631 13.5676 154.599 13.5676C155.75 13.5676 156.776 13.8145 157.68 14.3082C158.583 14.8019 159.289 15.5054 159.801 16.4188C160.332 15.5795 161.05 14.8944 161.966 14.3637C162.879 13.833 163.875 13.5676 164.951 13.5676C166.85 13.5676 168.361 14.1446 169.484 15.2956H169.481Z" fill="white"/>
<path d="M181.022 14.1723C181.824 13.7341 182.765 13.515 183.844 13.515C185.105 13.515 186.246 13.836 187.267 14.4747C188.29 15.1134 189.098 16.0268 189.69 17.2147C190.282 18.4027 190.581 19.782 190.581 21.3526C190.581 22.9232 190.285 24.3086 189.69 25.5059C189.095 26.7031 188.287 27.6257 187.267 28.2737C186.243 28.9217 185.102 29.2457 183.844 29.2457C182.786 29.2457 181.849 29.0266 181.038 28.5884C180.224 28.1502 179.592 27.5825 179.135 26.8882V36.3149H174.451V13.731H179.135V15.8972C179.592 15.1844 180.221 14.6104 181.026 14.1692L181.022 14.1723ZM184.843 18.5971C184.195 17.9306 183.397 17.5974 182.447 17.5974C181.497 17.5974 180.726 17.9368 180.079 18.6125C179.431 19.2883 179.108 20.2109 179.108 21.3803C179.108 22.5498 179.431 23.4724 180.079 24.1482C180.726 24.8239 181.516 25.1633 182.447 25.1633C183.378 25.1633 184.174 24.8208 184.831 24.1358C185.487 23.4508 185.817 22.5251 185.817 21.3557C185.817 20.1862 185.494 19.2698 184.846 18.6002L184.843 18.5971Z" fill="white"/>
<path d="M195.962 28.2861C194.765 27.6474 193.825 26.734 193.14 25.546C192.456 24.3581 192.114 22.9695 192.114 21.3804C192.114 19.7913 192.459 18.4244 193.153 17.2271C193.847 16.0299 194.796 15.1135 196.002 14.4717C197.208 13.8329 198.558 13.512 200.057 13.512C201.555 13.512 202.906 13.8329 204.112 14.4717C205.317 15.1104 206.267 16.0299 206.961 17.2271C207.655 18.4244 208 19.8067 208 21.3804C208 22.9541 207.648 24.3365 206.945 25.5337C206.242 26.7309 205.283 27.6474 204.068 28.2892C202.854 28.9279 201.497 29.2488 200.001 29.2488C198.506 29.2488 197.158 28.931 195.962 28.2892V28.2861ZM202.289 24.2038C202.918 23.5465 203.233 22.6054 203.233 21.3804C203.233 20.1554 202.928 19.2143 202.314 18.5571C201.7 17.8998 200.948 17.5697 200.054 17.5697C199.16 17.5697 198.382 17.8936 197.781 18.5416C197.18 19.1896 196.878 20.1369 196.878 21.3773C196.878 22.6178 197.174 23.5435 197.769 24.2007C198.361 24.8579 199.107 25.1881 200.001 25.1881C200.896 25.1881 201.657 24.8579 202.289 24.2007V24.2038Z" fill="white"/>
<path d="M40.8943 13.0431C40.1389 12.9289 38.9363 12.79 37.4531 12.79C33.352 12.79 27.4563 13.8145 22.6522 18.6929C16.075 25.3702 16.7657 33.9545 17.2066 36.7408C17.9683 36.858 19.1863 37 20.6818 37C24.6873 37 30.4658 36.0095 35.2453 31.2946C42.0229 24.608 41.3353 15.8695 40.8943 13.0431Z" fill="white"/>
<path d="M19.7288 20.0691C19.3495 19.6062 18.9425 19.1465 18.5016 18.6991C13.6943 13.8207 7.79861 12.7962 3.7006 12.7962C2.21742 12.7962 1.01484 12.932 0.259379 13.0492C-0.181565 15.8757 -0.869193 24.6142 5.90841 31.3008C9.04744 34.3957 12.6151 35.8861 15.8312 36.5464C15.4273 33.5657 15.0942 26.3977 19.7319 20.0722L19.7288 20.0691Z" fill="white"/>
<path d="M11.2154 12.6388C12.4827 8.67374 16.1953 5.801 20.577 5.801C24.9587 5.801 28.6682 8.67065 29.9386 12.6326C31.9614 11.9599 33.9194 11.6421 35.6524 11.5187C33.8454 4.88148 27.7832 0 20.577 0C13.3708 0 7.30545 4.88456 5.50159 11.5249C7.23453 11.6483 9.19257 11.9661 11.2154 12.6388Z" fill="white"/>
</svg>
