<svg width="328" height="59" viewBox="0 0 328 59" fill="none" xmlns="http://www.w3.org/2000/svg">
<path d="M120.772 24.0623C122.539 25.8729 123.423 28.3873 123.423 31.6057V45.6585H116.093V32.5959C116.093 31.0426 115.685 29.8436 114.865 28.9941C114.045 28.1446 112.918 27.7223 111.482 27.7223C110.045 27.7223 108.919 28.1446 108.098 28.9941C107.278 29.8436 106.87 31.0426 106.87 32.5959V45.6585H99.5403V32.5959C99.5403 31.0426 99.1326 29.8436 98.3122 28.9941C97.4918 28.1446 96.3657 27.7223 94.9288 27.7223C93.492 27.7223 92.3658 28.1446 91.5455 28.9941C90.7251 29.8436 90.3173 31.0426 90.3173 32.5959V45.6585H82.9438V21.6012H90.3173V24.6205C91.0649 23.6157 92.0406 22.8196 93.2493 22.2274C94.458 21.64 95.822 21.3439 97.3462 21.3439C99.1568 21.3439 100.773 21.7323 102.196 22.5089C103.618 23.2856 104.729 24.3924 105.535 25.8292C106.37 24.5089 107.506 23.4312 108.943 22.5963C110.38 21.7614 111.948 21.3439 113.642 21.3439C116.632 21.3439 119.01 22.2517 120.777 24.0623H120.772Z" fill="#2D5953"/>
<path d="M151.15 35.4016H134.467C134.583 36.8967 135.064 38.0374 135.913 38.8286C136.763 39.6199 137.801 40.013 139.039 40.013C140.879 40.013 142.156 39.2364 142.874 37.683H150.723C150.32 39.2655 149.597 40.6878 148.544 41.9499C147.495 43.2168 146.18 44.2071 144.597 44.9255C143.015 45.6439 141.248 46.0031 139.296 46.0031C136.937 46.0031 134.84 45.5031 133.001 44.4935C131.161 43.4886 129.724 42.0518 128.69 40.1829C127.656 38.3141 127.137 36.1297 127.137 33.6298C127.137 31.1299 127.646 28.9455 128.666 27.0766C129.685 25.2078 131.117 23.7709 132.957 22.7661C134.797 21.7613 136.908 21.2565 139.296 21.2565C141.685 21.2565 143.694 21.7468 145.505 22.7224C147.316 23.6981 148.733 25.0961 149.752 26.9067C150.772 28.7174 151.281 30.8289 151.281 33.2463C151.281 33.9356 151.238 34.654 151.15 35.4016ZM143.733 31.3046C143.733 30.0425 143.301 29.0329 142.442 28.2853C141.578 27.5378 140.5 27.164 139.209 27.164C137.918 27.164 136.932 27.5232 136.083 28.2416C135.233 28.9601 134.709 29.9794 134.51 31.3046H143.738H143.733Z" fill="#2D5953"/>
<path d="M165.761 22.4894C167.052 21.7273 168.489 21.3487 170.072 21.3487V29.1542H168.048C166.208 29.1542 164.829 29.5474 163.907 30.3387C162.985 31.1299 162.528 32.5133 162.528 34.4987V45.6633H155.155V21.606H162.528V25.6155C163.392 24.2952 164.47 23.2515 165.761 22.4894Z" fill="#2D5953"/>
<path d="M173.674 27.0814C174.693 25.2125 176.115 23.7757 177.94 22.7709C179.766 21.7661 181.858 21.2612 184.212 21.2612C187.231 21.2612 189.751 22.0525 191.78 23.6349C193.804 25.2174 195.134 27.4455 195.765 30.3191H187.921C187.26 28.4794 185.979 27.562 184.081 27.562C182.732 27.562 181.654 28.0862 180.848 29.1347C180.042 30.1832 179.639 31.6832 179.639 33.6394C179.639 35.5956 180.042 37.0956 180.848 38.1441C181.654 39.1926 182.732 39.7168 184.081 39.7168C185.979 39.7168 187.256 38.7994 187.921 36.9597H195.765C195.134 39.7751 193.794 41.9886 191.755 43.6002C189.712 45.2118 187.197 46.0127 184.212 46.0127C181.853 46.0127 179.766 45.5127 177.94 44.5031C176.115 43.4982 174.693 42.0614 173.674 40.1925C172.654 38.3237 172.145 36.1393 172.145 33.6394C172.145 31.1395 172.654 28.9551 173.674 27.0863V27.0814Z" fill="#2D5953"/>
<path d="M199.629 27.0814C200.561 25.2125 201.833 23.7757 203.444 22.7709C205.056 21.7661 206.852 21.2612 208.832 21.2612C210.527 21.2612 212.017 21.6059 213.293 22.2952C214.57 22.9845 215.556 23.8922 216.245 25.0135V21.6059H223.618V45.6632H216.245V42.2556C215.526 43.3769 214.526 44.2798 213.25 44.9739C211.968 45.6632 210.483 46.0079 208.789 46.0079C206.833 46.0079 205.051 45.4982 203.444 44.4788C201.833 43.4594 200.561 42.008 199.629 40.1246C198.692 38.2412 198.226 36.0665 198.226 33.5909C198.226 31.1152 198.692 28.9503 199.629 27.0814ZM214.721 29.2803C213.701 28.2173 212.459 27.6833 210.993 27.6833C209.527 27.6833 208.284 28.2076 207.265 29.2561C206.245 30.3046 205.735 31.7511 205.735 33.5909C205.735 35.4306 206.245 36.8917 207.265 37.9645C208.284 39.0421 209.527 39.5809 210.993 39.5809C212.459 39.5809 213.701 39.047 214.721 37.9839C215.74 36.9208 216.25 35.4694 216.25 33.6297C216.25 31.79 215.74 30.3386 214.721 29.2755V29.2803Z" fill="#2D5953"/>
<path d="M266.801 24.0623C268.568 25.8729 269.451 28.3873 269.451 31.6057V45.6585H262.121V32.5959C262.121 31.0426 261.714 29.8436 260.893 28.9941C260.073 28.1446 258.947 27.7223 257.51 27.7223C256.073 27.7223 254.947 28.1446 254.127 28.9941C253.306 29.8436 252.898 31.0426 252.898 32.5959V45.6585H245.569V32.5959C245.569 31.0426 245.161 29.8436 244.341 28.9941C243.52 28.1446 242.394 27.7223 240.957 27.7223C239.52 27.7223 238.394 28.1446 237.574 28.9941C236.753 29.8436 236.346 31.0426 236.346 32.5959V45.6585H228.972V21.6012H236.346V24.6205C237.093 23.6157 238.069 22.8196 239.278 22.2274C240.486 21.64 241.85 21.3439 243.375 21.3439C245.185 21.3439 246.802 21.7323 248.224 22.5089C249.646 23.2856 250.758 24.3924 251.564 25.8292C252.398 24.5089 253.529 23.4312 254.971 22.5963C256.408 21.7614 257.976 21.3439 259.67 21.3439C262.66 21.3439 265.039 22.2517 266.806 24.0623H266.801Z" fill="#2D5953"/>
<path d="M284.971 22.2952C286.233 21.6059 287.713 21.2612 289.412 21.2612C291.398 21.2612 293.194 21.7661 294.8 22.7709C296.412 23.7757 297.684 25.2125 298.616 27.0814C299.548 28.9503 300.019 31.1201 300.019 33.5909C300.019 36.0616 299.553 38.2412 298.616 40.1246C297.679 42.008 296.407 43.4594 294.8 44.4788C293.189 45.4982 291.393 46.0079 289.412 46.0079C287.747 46.0079 286.272 45.6632 284.995 44.9739C283.714 44.2846 282.718 43.3915 282 42.2993V57.1288H274.626V21.601H282V25.0087C282.718 23.8873 283.709 22.9845 284.976 22.2903L284.971 22.2952ZM290.985 29.2561C289.966 28.2076 288.708 27.6833 287.213 27.6833C285.718 27.6833 284.505 28.2173 283.485 29.2803C282.466 30.3434 281.956 31.7948 281.956 33.6345C281.956 35.4743 282.466 36.9257 283.485 37.9887C284.505 39.0518 285.747 39.5858 287.213 39.5858C288.679 39.5858 289.932 39.047 290.966 37.9693C292 36.8917 292.519 35.4354 292.519 33.5957C292.519 31.756 292.009 30.3143 290.99 29.2609L290.985 29.2561Z" fill="#2D5953"/>
<path d="M308.489 44.4983C306.605 43.4935 305.125 42.0566 304.047 40.1878C302.969 38.3189 302.431 36.1345 302.431 33.6346C302.431 31.1347 302.974 28.9843 304.067 27.1009C305.159 25.2175 306.654 23.7758 308.552 22.7661C310.45 21.7613 312.576 21.2565 314.935 21.2565C317.294 21.2565 319.42 21.7613 321.318 22.7661C323.216 23.7709 324.711 25.2175 325.804 27.1009C326.896 28.9843 327.439 31.159 327.439 33.6346C327.439 36.1103 326.886 38.285 325.779 40.1684C324.673 42.0518 323.163 43.4935 321.25 44.5032C319.338 45.508 317.202 46.0128 314.848 46.0128C312.493 46.0128 310.372 45.5128 308.489 44.5032V44.4983ZM318.449 38.0762C319.44 37.0423 319.935 35.5617 319.935 33.6346C319.935 31.7075 319.454 30.227 318.488 29.1931C317.522 28.1591 316.338 27.6397 314.93 27.6397C313.522 27.6397 312.299 28.1494 311.353 29.1688C310.406 30.1882 309.93 31.6784 309.93 33.6298C309.93 35.5812 310.396 37.0374 311.333 38.0714C312.265 39.1053 313.44 39.6247 314.848 39.6247C316.255 39.6247 317.454 39.1053 318.449 38.0714V38.0762Z" fill="#2D5953"/>
<path d="M64.377 20.5187C63.1878 20.3391 61.2946 20.1207 58.9598 20.1207C52.5037 20.1207 43.2225 21.7323 35.6597 29.4067C25.3057 39.9112 26.3931 53.4155 27.0872 57.7988C28.2862 57.9833 30.2036 58.2066 32.5579 58.2066C38.8635 58.2066 47.9602 56.6484 55.4842 49.2312C66.1537 38.7122 65.0712 24.9651 64.377 20.5187Z" fill="#8FB996"/>
<path d="M31.0576 31.5717C30.4606 30.8436 29.8198 30.1203 29.1257 29.4165C21.558 21.742 12.2768 20.1304 5.82559 20.1304C3.49073 20.1304 1.5976 20.344 0.408323 20.5285C-0.285826 24.9749 -1.36831 38.722 9.30119 49.241C14.2427 54.1097 19.859 56.4543 24.9219 57.4931C24.2861 52.8039 23.7618 41.5277 31.0625 31.5766L31.0576 31.5717Z" fill="#2D5953"/>
<path d="M17.6554 19.8827C19.6505 13.6451 25.495 9.12586 32.3927 9.12586C39.2905 9.12586 45.1301 13.6403 47.1301 19.873C50.3144 18.8148 53.3968 18.3148 56.1249 18.1207C53.2803 7.67931 43.737 0 32.3927 0C21.0485 0 11.5003 7.68416 8.66064 18.1304C11.3887 18.3245 14.4711 18.8245 17.6554 19.8827Z" fill="#F4743B"/>
</svg>
